<svg xmlns="http://www.w3.org/2000/svg" xmlns:xlink="http://www.w3.org/1999/xlink" width="500" zoomAndPan="magnify" viewBox="0 0 375 374.999991" height="500" preserveAspectRatio="xMidYMid meet" version="1.0"><defs><clipPath id="f885a1ab27"><path d="M 34 74.085938 L 340 74.085938 L 340 300.585938 L 34 300.585938 Z M 34 74.085938 " clip-rule="nonzero"/></clipPath></defs><g clip-path="url(#f885a1ab27)"><path fill="#000000" d="M 298.082031 118.28125 C 284.113281 121.644531 269.59375 123.359375 255.441406 125.992188 C 241.226562 128.621094 227.136719 131.679688 213.042969 135.046875 C 211.328125 135.476562 210.59375 132.90625 212.308594 132.476562 C 226.585938 128.804688 240.859375 125.441406 255.320312 122.441406 C 269.164062 119.628906 283.503906 116.507812 297.65625 115.28125 C 299.371094 115.097656 299.738281 117.851562 298.082031 118.28125 Z M 132.050781 216.125 C 113.300781 213.1875 94.554688 210.066406 75.683594 207.863281 C 74.703125 207.742188 74.457031 209.453125 75.4375 209.636719 C 94.1875 213.554688 113.179688 216.492188 132.109375 219.613281 C 151.042969 222.734375 169.972656 226.035156 188.964844 228.789062 C 191.109375 229.097656 192.089844 225.851562 189.824219 225.425781 C 170.648438 222 151.289062 219.121094 132.050781 216.125 Z M 92.347656 267.769531 C 78.316406 263.425781 64.347656 259.019531 50.378906 254.550781 C 48.542969 253.941406 47.808594 256.875 49.644531 257.425781 C 63.429688 261.832031 77.214844 266.175781 91 270.460938 C 97.617188 272.480469 104.234375 274.5 110.914062 276.457031 C 119 278.78125 127.269531 282.027344 135.542969 283.3125 C 136.523438 283.496094 137.320312 282.085938 136.214844 281.597656 C 128.925781 278.355469 120.714844 276.578125 113.058594 274.195312 C 106.195312 272.050781 99.273438 269.910156 92.347656 267.769531 Z M 50.441406 242.558594 C 48.789062 242.070312 48.113281 244.640625 49.769531 245.1875 C 77.828125 254 105.949219 262.566406 134.070312 271.074219 C 135.359375 271.441406 135.847656 269.480469 134.621094 269.054688 C 106.5625 260.058594 78.5625 251.1875 50.441406 242.558594 Z M 188.476562 211.964844 C 149.328125 205.292969 110.117188 198.992188 70.964844 192.382812 C 69.496094 192.136719 69.558594 193.972656 71.027344 194.277344 C 71.027344 194.277344 148.777344 208.292969 187.742188 215.449219 C 190.804688 216 191.539062 212.515625 188.476562 211.964844 Z M 297.960938 101.941406 C 268.367188 106.410156 238.960938 111.855469 209.613281 117.667969 C 208.386719 117.914062 208.941406 119.75 210.164062 119.503906 C 239.632812 114.242188 269.164062 109.347656 298.757812 104.636719 C 300.535156 104.390625 299.738281 101.699219 297.960938 101.941406 Z M 333.496094 180.144531 C 333.3125 180.449219 333.066406 180.574219 332.761719 180.632812 C 332.453125 180.816406 332.148438 180.941406 331.78125 180.941406 C 328.472656 181.367188 325.164062 181.796875 321.917969 182.226562 C 327.0625 193.117188 328.839844 208.535156 320.9375 218.449219 C 320.8125 218.570312 320.691406 218.695312 320.570312 218.816406 C 320.324219 219.0625 319.957031 219.246094 319.527344 219.304688 C 315.914062 220.101562 312.296875 220.898438 308.742188 221.691406 C 314.871094 232.890625 314.441406 246.167969 308.621094 257.425781 C 308.4375 257.855469 308.070312 258.039062 307.765625 258.160156 C 307.519531 258.285156 307.273438 258.40625 306.96875 258.46875 C 251.03125 272.296875 195.339844 287.164062 139.15625 300.078125 C 138.542969 300.382812 137.808594 300.445312 137.011719 300.199219 C 103.253906 290.53125 70.109375 278.964844 36.59375 268.746094 C 34.511719 268.136719 34.757812 265.382812 36.289062 264.710938 C 44.5 253.574219 44.132812 238.457031 35.003906 227.871094 C 33.714844 226.34375 34.511719 224.445312 35.796875 223.652344 C 35.984375 223.46875 36.226562 223.34375 36.472656 223.285156 C 44.742188 221.265625 52.832031 218.449219 61.101562 216.550781 C 63.675781 216 64.777344 219.734375 62.203125 220.46875 C 55.773438 222.367188 49.214844 223.710938 42.660156 225.117188 C 58.039062 229.648438 73.417969 234.113281 88.734375 238.765625 C 97.25 241.335938 105.703125 243.84375 114.222656 246.414062 C 118.386719 247.699219 122.613281 248.984375 126.78125 250.269531 C 129.722656 251.1875 132.847656 251.796875 135.664062 253.082031 C 150.492188 250.085938 165.316406 247.023438 180.207031 244.332031 C 165.074219 241.089844 149.878906 237.90625 134.746094 234.785156 C 123.347656 232.402344 111.953125 229.953125 100.558594 227.320312 C 89.285156 224.691406 78.257812 221.082031 67.046875 218.632812 C 66.984375 218.632812 66.921875 218.570312 66.859375 218.570312 C 66.066406 218.449219 65.328125 217.835938 64.960938 216.796875 C 63.675781 212.699219 63.796875 208.046875 63.492188 203.761719 L 62.449219 189.507812 C 62.265625 187.363281 65.941406 186.8125 66.25 188.957031 C 66.984375 193.667969 67.71875 198.378906 68.453125 203.03125 C 69.128906 207.25 70.351562 211.78125 70.046875 216.0625 C 70.046875 216.183594 69.984375 216.308594 69.984375 216.429688 C 80.832031 218.695312 92.042969 219.917969 102.949219 221.9375 C 114.097656 224.019531 125.308594 226.097656 136.460938 228.179688 C 159.3125 232.523438 182.226562 236.378906 205.140625 240.234375 C 205.324219 240.292969 205.570312 240.292969 205.753906 240.355469 C 210.714844 230.441406 210.410156 218.878906 205.324219 209.027344 C 204.957031 208.597656 204.589844 208.167969 204.222656 207.800781 C 204.160156 207.742188 204.160156 207.742188 204.101562 207.679688 C 199.074219 207.375 193.929688 206.273438 188.964844 205.597656 C 185.414062 205.109375 181.796875 204.558594 178.246094 204.007812 C 178.183594 204.007812 178.121094 204.007812 178 204.007812 C 132.355469 196.480469 86.773438 188.648438 41.066406 181.246094 C 38.433594 180.816406 39.535156 176.960938 42.109375 177.328125 C 42.597656 177.390625 43.089844 177.453125 43.578125 177.511719 C 42.96875 167.109375 42.597656 156.769531 42.230469 146.367188 C 41.3125 146.246094 40.457031 146.0625 39.535156 145.9375 C 39.167969 145.878906 38.863281 145.753906 38.679688 145.511719 C 37.390625 144.777344 37.148438 142.390625 39.046875 141.839844 C 48.605469 139.023438 58.222656 136.085938 68.023438 134.3125 C 64.472656 129.480469 62.878906 122.6875 62.574219 117.117188 C 62.082031 109.59375 63.980469 102.25 67.78125 95.824219 C 67.839844 95.273438 68.210938 94.785156 68.945312 94.601562 C 85.179688 90.746094 101.539062 86.15625 118.019531 83.339844 C 128.128906 80.953125 140.257812 78.691406 146.875 77.222656 C 153.859375 75.691406 160.046875 74.773438 167.21875 74.589844 C 182.65625 74.222656 198.339844 75.816406 213.71875 76.488281 C 246.496094 78.019531 277.007812 80.097656 312.175781 84.136719 C 313.585938 84.320312 314.011719 85.605469 313.769531 86.644531 C 313.890625 87.808594 313.214844 88.972656 311.808594 88.910156 C 310.949219 89.03125 310.09375 89.214844 309.234375 89.339844 C 307.824219 96.007812 307.089844 102.738281 307.457031 109.53125 C 307.765625 115.589844 309.171875 121.339844 310.519531 127.214844 C 311.5 127.09375 312.480469 126.910156 313.460938 126.726562 C 315.972656 126.359375 317.199219 130.152344 314.566406 130.640625 C 305.4375 132.292969 296.246094 134.007812 287.117188 135.78125 C 302.433594 136.578125 317.445312 138.230469 332.578125 141.289062 C 332.945312 141.351562 333.191406 141.472656 333.433594 141.65625 C 334.292969 141.960938 334.78125 142.816406 334.84375 143.675781 C 341.214844 155.179688 340.601562 169.007812 333.496094 180.144531 Z M 306.046875 89.886719 C 270.390625 95.703125 234.734375 101.515625 199.136719 107.816406 C 199.136719 107.878906 199.074219 108 199.074219 108.0625 C 195.953125 115.160156 194.910156 122.929688 195.953125 130.640625 C 196.441406 134.066406 197.359375 137.371094 198.523438 140.617188 C 199.445312 143.0625 200.792969 145.265625 201.894531 147.652344 C 237.121094 140.433594 272.230469 133.273438 307.765625 127.703125 C 303.167969 115.773438 303.535156 102.25 306.046875 89.886719 Z M 79.789062 95.824219 C 118.324219 98.699219 156.863281 101.515625 195.398438 105.003906 C 195.523438 104.941406 195.644531 104.878906 195.828125 104.878906 C 228.851562 97.84375 262.242188 92.398438 295.632812 87.195312 C 296.492188 87.074219 297.289062 87.011719 298.144531 86.890625 C 270.941406 84.257812 243.738281 82.238281 216.414062 80.894531 C 200.730469 80.097656 185.046875 78.996094 169.300781 78.261719 C 166.972656 78.140625 164.703125 78.140625 162.5 78.261719 C 152.757812 80.28125 143.015625 82.363281 133.273438 84.320312 C 126.289062 86.09375 118.632812 87.992188 113.546875 89.03125 C 102.273438 91.539062 91 93.558594 79.789062 95.824219 Z M 195.277344 109.46875 C 179.285156 108.0625 163.296875 106.65625 147.304688 105.1875 C 144.976562 118.21875 145.652344 130.703125 150.429688 143.0625 C 165.316406 144.59375 180.207031 146 195.15625 147.164062 C 192.460938 142.023438 191.480469 135.414062 191.234375 130.214844 C 190.925781 123.054688 192.335938 115.957031 195.277344 109.46875 Z M 142.769531 104.820312 C 131.742188 103.839844 120.714844 102.800781 109.6875 101.757812 C 106.441406 114.242188 107.542969 127.335938 113.117188 139.023438 C 124.207031 140.308594 135.296875 141.59375 146.386719 142.757812 C 141.238281 130.949219 139.523438 117.300781 142.769531 104.820312 Z M 72.804688 134.066406 C 84.445312 135.535156 96.085938 136.945312 107.789062 138.351562 C 102.578125 126.542969 101.476562 113.875 104.785156 101.269531 C 93.144531 100.167969 81.503906 99.007812 69.863281 97.84375 C 69.617188 97.90625 69.3125 97.90625 69.128906 97.84375 C 66.371094 103.65625 65.207031 109.898438 65.882812 116.324219 C 66.617188 123.238281 69.925781 128.195312 72.804688 134.066406 Z M 179.042969 166.558594 C 134.5625 160.136719 89.960938 154.078125 45.601562 146.855469 C 46.03125 157.199219 46.519531 167.539062 46.703125 177.878906 C 90.511719 184 134.195312 190.363281 177.878906 197.277344 C 177.9375 197.03125 178 196.847656 178.121094 196.605469 C 182.535156 187.121094 183.023438 176.351562 179.042969 166.558594 Z M 182.105469 161.113281 C 227.136719 153.710938 272.414062 148.265625 317.75 143.183594 C 304.085938 140.984375 290.363281 138.78125 276.515625 137.921875 C 276.457031 137.921875 276.457031 137.921875 276.394531 137.921875 C 251.519531 142.816406 226.707031 147.957031 201.957031 153.097656 C 201.832031 153.097656 201.710938 153.097656 201.585938 153.160156 C 201.28125 153.28125 200.851562 153.34375 200.421875 153.28125 C 157.476562 149.734375 114.832031 143.859375 72.191406 137.738281 C 71.945312 137.800781 71.703125 137.738281 71.394531 137.679688 C 71.273438 137.738281 71.210938 137.738281 71.089844 137.800781 C 63.554688 139.757812 56.015625 141.53125 48.480469 143.429688 C 92.65625 148.816406 136.765625 154.382812 180.816406 160.625 C 181.371094 160.6875 181.738281 160.871094 182.105469 161.113281 Z M 281.601562 182.652344 C 287.851562 181.796875 294.039062 181 300.289062 180.207031 C 302.863281 170.230469 302.371094 159.890625 297.839844 150.710938 C 291.589844 151.445312 285.339844 152.179688 279.089844 152.914062 C 283.441406 162.03125 285.09375 173.046875 281.601562 182.652344 Z M 250.171875 187.058594 C 259.179688 185.773438 268.183594 184.488281 277.191406 183.265625 C 279.457031 173.167969 280.132812 163.5 275.84375 153.710938 C 275.78125 153.585938 275.722656 153.402344 275.722656 153.28125 C 266.777344 154.320312 257.832031 155.421875 248.886719 156.523438 C 252.867188 166.070312 253.972656 177.328125 250.171875 187.058594 Z M 223.519531 191.097656 C 230.996094 189.933594 238.53125 188.773438 246.066406 187.671875 C 249.132812 177.144531 249.925781 167.171875 245.761719 156.890625 C 237.859375 157.808594 229.953125 158.789062 222.113281 159.707031 C 226.890625 169.558594 227.625 180.941406 223.519531 191.097656 Z M 219.90625 191.710938 C 222.480469 181.183594 223.214844 170.414062 218.621094 160.195312 C 218.621094 160.195312 218.621094 160.195312 218.621094 160.136719 C 206.796875 161.542969 194.910156 162.886719 183.023438 164.171875 C 187.863281 175.003906 188.109375 187.058594 183.269531 197.949219 C 195.460938 195.746094 207.652344 193.667969 219.90625 191.710938 Z M 244.902344 192.996094 C 228.054688 195.441406 211.207031 197.890625 194.296875 200.277344 C 197.910156 200.582031 201.585938 200.828125 205.019531 201.5625 C 218.3125 198.625 231.609375 195.746094 244.902344 192.996094 Z M 134.746094 259.261719 C 134.5 259.019531 134.316406 258.773438 134.195312 258.46875 C 131.128906 257.917969 128.25 256.691406 125.308594 255.773438 C 121.144531 254.429688 116.917969 253.144531 112.75 251.859375 C 104.296875 249.226562 95.839844 246.597656 87.324219 243.964844 C 72.3125 239.316406 57.363281 234.542969 42.476562 229.648438 C 48.910156 240.96875 48.175781 254.675781 40.085938 265.261719 C 72.804688 274.195312 105.152344 284.230469 137.746094 293.589844 C 142.832031 282.269531 144.363281 268.746094 134.746094 259.261719 Z M 199.320312 264.894531 C 198.585938 258.527344 196.5625 252.65625 193.316406 247.269531 C 175.917969 251.492188 158.210938 254.429688 140.6875 257.855469 C 149.753906 268.136719 147.980469 282.945312 142.894531 295 C 161.398438 290.042969 179.898438 285.148438 198.402344 280.3125 C 198.464844 278.414062 199.074219 276.519531 199.320312 274.5 C 199.6875 271.316406 199.628906 268.074219 199.320312 264.894531 Z M 259.425781 233.808594 C 253.726562 235.335938 248.027344 236.867188 242.332031 238.457031 C 236.632812 240.050781 230.933594 241.640625 225.238281 243.230469 C 219.660156 244.824219 214.023438 246.414062 208.449219 248.125 C 206.550781 248.675781 204.222656 249.105469 202.324219 248.675781 C 200.792969 248.308594 199.75 248.066406 197.789062 247.574219 C 200.667969 252.410156 202.9375 258.285156 203.792969 263.851562 C 204.40625 267.769531 205.019531 274.195312 203.671875 278.964844 C 223.765625 273.703125 243.863281 268.503906 263.957031 263.363281 C 265.613281 253.082031 264.507812 243.046875 259.425781 233.808594 Z M 307.394531 238.824219 C 307.273438 233.871094 305.558594 226.769531 301.453125 223.40625 C 288.585938 226.402344 275.722656 229.523438 262.917969 232.890625 C 267.941406 241.761719 270.144531 252.289062 268.246094 262.261719 C 280.316406 259.203125 292.386719 256.140625 304.515625 253.144531 C 306.601562 248.554688 307.519531 243.78125 307.394531 238.824219 Z M 320.445312 200.519531 C 320.445312 194.707031 319.097656 189.015625 316.464844 183.816406 C 316.339844 183.632812 316.28125 183.386719 316.21875 183.203125 C 298.695312 187.058594 280.804688 189.75 263.160156 193.300781 C 245.027344 196.972656 226.953125 200.828125 208.878906 204.804688 C 208.878906 204.925781 208.878906 204.988281 208.878906 205.109375 C 214.269531 213.675781 215.742188 223.894531 213.414062 233.441406 C 212.984375 236.683594 212.125 239.804688 210.960938 242.925781 C 246.375 232.460938 282.09375 223.34375 317.996094 214.714844 C 319.097656 210.003906 320.445312 205.476562 320.445312 200.519531 Z M 330.492188 146.917969 C 320.875 147.957031 311.195312 149.058594 301.574219 150.222656 C 306.230469 159.953125 306.660156 169.496094 304.210938 179.65625 C 313.339844 178.492188 322.527344 177.328125 331.65625 176.226562 C 331.65625 176.226562 331.71875 176.226562 331.71875 176.226562 C 335.519531 167.355469 336.070312 155.179688 330.492188 146.917969 Z M 330.492188 146.917969 " fill-opacity="1" fill-rule="nonzero"/></g></svg>